<svg xmlns="http://www.w3.org/2000/svg" width="80" height="80" fill="none"><rect width="80" height="80" fill="#C1F5A6" rx="20"/><path stroke="#1A1A1A" stroke-linecap="round" stroke-linejoin="round" d="M40 58c9.941 0 18-8.059 18-18s-8.059-18-18-18-18 8.059-18 18 8.059 18 18 18Z"/><path stroke="#1A1A1A" stroke-linecap="round" stroke-linejoin="round" d="m25.3 50.387 2.194-1.33a1.5 1.5 0 0 0 .712-1.276l.038-6.769c.003-.28.087-.554.244-.787l3.712-5.831a1.52 1.52 0 0 1 2.156-.413l3.675 2.663c.317.22.703.32 1.088.28l5.906-.805c.358-.05.686-.23.919-.507l4.162-4.8c.247-.292.374-.667.357-1.05l-.207-4.556M51.081 54.194l-2.025-2.025a1.537 1.537 0 0 0-.675-.394l-4.031-1.05a1.5 1.5 0 0 1-1.087-1.669l.43-3.037a1.538 1.538 0 0 1 .92-1.163l5.7-2.381a1.5 1.5 0 0 1 1.593.281l4.669 4.275"/></svg>