<svg xmlns="http://www.w3.org/2000/svg" width="24" height="24" fill="none"><path stroke="#000" stroke-linecap="round" stroke-linejoin="round" d="M12 21a9 9 0 1 0 0-18 9 9 0 0 0 0 18Z"/><path stroke="#000" stroke-linecap="round" stroke-linejoin="round" d="m4.65 17.194 1.097-.666a.75.75 0 0 0 .357-.637l.018-3.385a.722.722 0 0 1 .122-.394L8.1 9.197A.76.76 0 0 1 9.18 8.99l1.837 1.33c.159.111.351.161.544.141l2.953-.403a.732.732 0 0 0 .46-.253l2.08-2.4a.759.759 0 0 0 .179-.525l-.104-2.278M17.54 19.097l-1.012-1.013a.768.768 0 0 0-.337-.197l-2.016-.524a.75.75 0 0 1-.544-.835l.216-1.519a.77.77 0 0 1 .46-.58l2.85-1.191a.75.75 0 0 1 .796.14l2.335 2.138"/></svg>