<svg xmlns="http://www.w3.org/2000/svg" width="24" height="24" fill="none"><path stroke="#18D155" stroke-linecap="round" stroke-linejoin="round" d="M16.5 7.5h3.994a.74.74 0 0 1 .694.469L22.5 11.25M1.5 13.5h15M17.625 20.25a2.25 2.25 0 1 0 0-4.5 2.25 2.25 0 0 0 0 4.5ZM6.375 20.25a2.25 2.25 0 1 0 0-4.5 2.25 2.25 0 0 0 0 4.5ZM15.375 18h-6.75"/><path stroke="#18D155" stroke-linecap="round" stroke-linejoin="round" d="M4.125 18H2.25a.75.75 0 0 1-.75-.75V6.75A.75.75 0 0 1 2.25 6H16.5v10.05M16.5 11.25h6v6a.75.75 0 0 1-.75.75h-1.875"/></svg>