<svg xmlns="http://www.w3.org/2000/svg" width="24" height="24" fill="none"><path stroke="#000" stroke-linecap="round" stroke-linejoin="round" d="M4.256 16.594a8.99 8.99 0 1 1 3.15 3.15v0l-3.112.881a.74.74 0 0 1-.919-.919l.881-3.112Z"/><path stroke="#000" stroke-linecap="round" stroke-linejoin="round" d="M14.26 17.25a7.49 7.49 0 0 1-7.51-7.51 2.625 2.625 0 0 1 2.625-2.615v0a.638.638 0 0 1 .563.328l1.096 1.913a.76.76 0 0 1-.009.759l-.881 1.472a4.5 4.5 0 0 0 2.26 2.26l1.471-.882a.759.759 0 0 1 .76-.01l1.912 1.098a.637.637 0 0 1 .328.562 2.634 2.634 0 0 1-2.616 2.625v0Z"/></svg>